<svg xmlns="http://www.w3.org/2000/svg" xmlns:xlink="http://www.w3.org/1999/xlink" width="500" zoomAndPan="magnify" viewBox="0 0 375 374.999991" height="500" preserveAspectRatio="xMidYMid meet" version="1.0"><defs><clipPath id="ef2a58e0f2"><path d="M 71 41.25 L 304 41.25 L 304 333.75 L 71 333.75 Z M 71 41.25 " clip-rule="nonzero"/></clipPath></defs><path fill="#ffffff" d="M 370.019531 94.515625 C 365.015625 87.070312 354.917969 85.085938 347.46875 90.085938 C 341.527344 94.082031 339.070312 101.3125 340.855469 107.859375 L 323.679688 119.394531 C 317.476562 107.0625 305.976562 97.855469 292.171875 94.75 C 303.164062 113.058594 309.492188 134.472656 309.492188 157.335938 C 309.492188 164.917969 308.789062 172.34375 307.457031 179.546875 C 320.21875 171.191406 328.652344 156.777344 328.652344 140.386719 C 328.652344 136.609375 328.199219 132.9375 327.359375 129.421875 L 346.636719 116.46875 C 352.019531 120.597656 359.648438 121.058594 365.589844 117.070312 C 373.042969 112.0625 375.023438 101.96875 370.019531 94.515625 Z M 51.355469 119.394531 L 34.179688 107.859375 C 35.96875 101.3125 33.507812 94.082031 27.566406 90.085938 C 20.113281 85.085938 10.019531 87.070312 5.015625 94.515625 C 0.0078125 101.96875 1.992188 112.0625 9.445312 117.070312 C 15.386719 121.058594 23.011719 120.597656 28.394531 116.46875 L 47.683594 129.421875 C 46.835938 132.941406 46.382812 136.609375 46.382812 140.386719 C 46.382812 156.777344 54.820312 171.191406 67.578125 179.546875 C 66.246094 172.34375 65.546875 164.917969 65.546875 157.335938 C 65.546875 134.472656 71.871094 113.0625 82.863281 94.753906 C 69.054688 97.859375 57.5625 107.066406 51.355469 119.394531 " fill-opacity="1" fill-rule="nonzero"/><path fill="#4285f4" d="M 260.925781 138.160156 C 247.667969 119.410156 219.152344 119.410156 205.898438 138.160156 C 203.851562 141.058594 204.9375 145.097656 208.167969 146.558594 C 208.203125 146.574219 208.238281 146.589844 208.269531 146.605469 C 210.699219 147.703125 213.59375 146.964844 215.132812 144.789062 C 223.945312 132.347656 242.878906 132.347656 251.6875 144.789062 C 253.230469 146.964844 256.121094 147.703125 258.550781 146.605469 C 258.585938 146.589844 258.621094 146.574219 258.65625 146.558594 C 261.886719 145.097656 262.976562 141.058594 260.925781 138.160156 " fill-opacity="1" fill-rule="nonzero"/><path fill="#4285f4" d="M 169.140625 138.160156 C 155.882812 119.410156 127.367188 119.410156 114.109375 138.160156 C 112.0625 141.058594 113.148438 145.097656 116.378906 146.558594 C 116.414062 146.574219 116.449219 146.589844 116.484375 146.605469 C 118.914062 147.703125 121.804688 146.964844 123.347656 144.789062 C 132.160156 132.347656 151.089844 132.347656 159.898438 144.789062 C 161.441406 146.964844 164.335938 147.703125 166.765625 146.605469 C 166.800781 146.589844 166.832031 146.574219 166.867188 146.558594 C 170.097656 145.097656 171.1875 141.058594 169.140625 138.160156 " fill-opacity="1" fill-rule="nonzero"/><g clip-path="url(#ef2a58e0f2)"><path fill="#ffffff" d="M 243.65625 189.542969 C 225.273438 194.574219 206.414062 197.273438 187.519531 197.636719 C 168.621094 197.273438 149.761719 194.574219 131.378906 189.542969 C 107.007812 182.871094 89.652344 161.21875 88.816406 135.964844 C 88.8125 135.84375 88.804688 135.726562 88.804688 135.605469 C 88.804688 135.484375 88.8125 135.363281 88.816406 135.238281 C 89.652344 109.984375 107.007812 88.332031 131.378906 81.660156 C 149.761719 76.628906 168.621094 73.933594 187.519531 73.570312 C 206.414062 73.933594 225.273438 76.628906 243.65625 81.660156 C 268.027344 88.332031 285.386719 109.984375 286.21875 135.238281 C 286.222656 135.363281 286.226562 135.484375 286.230469 135.605469 C 286.226562 135.726562 286.222656 135.84375 286.21875 135.964844 C 285.386719 161.21875 268.027344 182.871094 243.65625 189.542969 Z M 187.519531 250.855469 C 168.210938 250.855469 152.28125 236.433594 149.886719 217.773438 C 149.886719 217.773438 166.546875 226.417969 187.519531 226.417969 C 208.488281 226.417969 225.148438 217.773438 225.148438 217.773438 C 222.753906 236.433594 206.824219 250.855469 187.519531 250.855469 Z M 187.519531 41.265625 C 123.417969 41.265625 71.453125 93.230469 71.453125 157.335938 C 71.453125 202.972656 97.796875 242.449219 136.101562 261.410156 L 123.941406 333.734375 L 178.851562 273.078125 C 181.714844 273.289062 184.601562 273.398438 187.519531 273.398438 C 251.621094 273.398438 303.582031 221.4375 303.582031 157.335938 C 303.582031 93.230469 251.621094 41.265625 187.519531 41.265625 " fill-opacity="1" fill-rule="nonzero"/></g></svg>