<svg xmlns="http://www.w3.org/2000/svg" xmlns:xlink="http://www.w3.org/1999/xlink" width="500" zoomAndPan="magnify" viewBox="0 0 375 374.999991" height="500" preserveAspectRatio="xMidYMid meet" version="1.0"><defs><g/><clipPath id="596b8ad82e"><path d="M 35.0625 148 L 179 148 L 179 185 L 35.0625 185 Z M 35.0625 148 " clip-rule="nonzero"/></clipPath><clipPath id="fba221c0c5"><path d="M 62 131.132812 L 153 131.132812 L 153 243.546875 L 62 243.546875 Z M 62 131.132812 " clip-rule="nonzero"/></clipPath></defs><g fill="#f9f9f9" fill-opacity="1"><g transform="translate(-1.181848, 219.286339)"><g><path d="M 1.5625 -25.5625 C 1.5625 -28.625 2.101562 -31.640625 3.1875 -34.609375 C 4.269531 -37.585938 5.859375 -40.253906 7.953125 -42.609375 C 10.054688 -44.972656 12.609375 -46.882812 15.609375 -48.34375 C 18.609375 -49.8125 22.019531 -50.546875 25.84375 -50.546875 C 30.320312 -50.546875 34.238281 -49.539062 37.59375 -47.53125 C 40.945312 -45.53125 43.425781 -42.878906 45.03125 -39.578125 L 34.484375 -32.078125 C 34.054688 -33.296875 33.5 -34.304688 32.8125 -35.109375 C 32.125 -35.910156 31.378906 -36.546875 30.578125 -37.015625 C 29.773438 -37.492188 28.925781 -37.828125 28.03125 -38.015625 C 27.132812 -38.203125 26.3125 -38.296875 25.5625 -38.296875 C 23.8125 -38.296875 22.3125 -37.90625 21.0625 -37.125 C 19.8125 -36.351562 18.769531 -35.34375 17.9375 -34.09375 C 17.113281 -32.84375 16.515625 -31.425781 16.140625 -29.84375 C 15.765625 -28.257812 15.578125 -26.691406 15.578125 -25.140625 C 15.578125 -23.390625 15.800781 -21.710938 16.25 -20.109375 C 16.695312 -18.503906 17.359375 -17.085938 18.234375 -15.859375 C 19.109375 -14.628906 20.171875 -13.648438 21.421875 -12.921875 C 22.671875 -12.191406 24.097656 -11.828125 25.703125 -11.828125 C 26.503906 -11.828125 27.328125 -11.929688 28.171875 -12.140625 C 29.023438 -12.347656 29.835938 -12.703125 30.609375 -13.203125 C 31.390625 -13.703125 32.097656 -14.335938 32.734375 -15.109375 C 33.378906 -15.890625 33.890625 -16.847656 34.265625 -17.984375 L 45.515625 -11.25 C 44.804688 -9.414062 43.734375 -7.765625 42.296875 -6.296875 C 40.859375 -4.835938 39.21875 -3.609375 37.375 -2.609375 C 35.539062 -1.617188 33.582031 -0.863281 31.5 -0.34375 C 29.425781 0.164062 27.398438 0.421875 25.421875 0.421875 C 21.921875 0.421875 18.707031 -0.316406 15.78125 -1.796875 C 12.851562 -3.285156 10.335938 -5.253906 8.234375 -7.703125 C 6.140625 -10.160156 4.503906 -12.945312 3.328125 -16.0625 C 2.148438 -19.1875 1.5625 -22.351562 1.5625 -25.5625 Z M 1.5625 -25.5625 "/></g></g></g><g fill="#f9f9f9" fill-opacity="1"><g transform="translate(50.133313, 219.286339)"><g/></g></g><g fill="#f9f9f9" fill-opacity="1"><g transform="translate(71.016999, 219.286339)"><g/></g></g><g fill="#f9f9f9" fill-opacity="1"><g transform="translate(91.900684, 219.286339)"><g/></g></g><g fill="#f9f9f9" fill-opacity="1"><g transform="translate(112.784369, 219.286339)"><g/></g></g><g fill="#f9f9f9" fill-opacity="1"><g transform="translate(133.668056, 219.286339)"><g/></g></g><g fill="#f9f9f9" fill-opacity="1"><g transform="translate(154.551743, 219.286339)"><g/></g></g><g fill="#f9f9f9" fill-opacity="1"><g transform="translate(175.426218, 219.286339)"><g><path d="M 4.3125 0 L 4.3125 -50.265625 L 23.640625 -50.265625 C 27.796875 -50.265625 31.453125 -49.601562 34.609375 -48.28125 C 37.773438 -46.957031 40.421875 -45.160156 42.546875 -42.890625 C 44.671875 -40.628906 46.273438 -37.976562 47.359375 -34.9375 C 48.441406 -31.894531 48.984375 -28.648438 48.984375 -25.203125 C 48.984375 -21.378906 48.378906 -17.921875 47.171875 -14.828125 C 45.972656 -11.734375 44.265625 -9.085938 42.046875 -6.890625 C 39.828125 -4.703125 37.160156 -3.003906 34.046875 -1.796875 C 30.929688 -0.597656 27.460938 0 23.640625 0 Z M 34.96875 -25.203125 C 34.96875 -27.140625 34.707031 -28.910156 34.1875 -30.515625 C 33.675781 -32.117188 32.9375 -33.484375 31.96875 -34.609375 C 31 -35.742188 29.804688 -36.628906 28.390625 -37.265625 C 26.972656 -37.910156 25.390625 -38.234375 23.640625 -38.234375 L 18.125 -38.234375 L 18.125 -12.03125 L 23.640625 -12.03125 C 25.441406 -12.03125 27.046875 -12.359375 28.453125 -13.015625 C 29.867188 -13.679688 31.0625 -14.601562 32.03125 -15.78125 C 33 -16.96875 33.726562 -18.363281 34.21875 -19.96875 C 34.71875 -21.570312 34.96875 -23.316406 34.96875 -25.203125 Z M 34.96875 -25.203125 "/></g></g></g><g fill="#f9f9f9" fill-opacity="1"><g transform="translate(231.137936, 219.286339)"><g><path d="M 40.140625 -12.03125 L 40.140625 0 L 4.3125 0 L 4.3125 -50.265625 L 39.5 -50.265625 L 39.5 -38.234375 L 18.125 -38.234375 L 18.125 -31.15625 L 36.390625 -31.15625 L 36.390625 -19.96875 L 18.125 -19.96875 L 18.125 -12.03125 Z M 40.140625 -12.03125 "/></g></g></g><g fill="#f9f9f9" fill-opacity="1"><g transform="translate(278.355011, 219.286339)"><g><path d="M 3.546875 0 L 3.546875 -13.03125 L 14.4375 -13.03125 L 14.4375 0 Z M 3.546875 0 "/></g></g></g><g fill="#f9f9f9" fill-opacity="1"><g transform="translate(301.291564, 219.286339)"><g><path d="M -0.5625 0 L 18.1875 -50.265625 L 29.375 -50.265625 L 48.078125 0 L 33.484375 0 L 30.4375 -9.84375 L 17.0625 -9.84375 L 14.09375 0 Z M 23.78125 -35.890625 L 19.109375 -19.046875 L 28.25 -19.046875 Z M 23.78125 -35.890625 "/></g></g></g><g fill="#f9f9f9" fill-opacity="1"><g transform="translate(353.747008, 219.286339)"><g><path d="M 4.3125 0 L 4.3125 -50.265625 L 18.125 -50.265625 L 18.125 0 Z M 4.3125 0 "/></g></g></g><g clip-path="url(#596b8ad82e)"><path fill="#ffffff" d="M 177.792969 151.605469 C 175.863281 148.742188 171.96875 147.980469 169.09375 149.902344 C 166.800781 151.4375 165.851562 154.214844 166.542969 156.734375 L 159.917969 161.164062 C 157.523438 156.425781 153.089844 152.886719 147.765625 151.695312 C 152.003906 158.730469 154.445312 166.960938 154.445312 175.746094 C 154.445312 178.660156 154.171875 181.515625 153.660156 184.28125 C 158.582031 181.074219 161.835938 175.53125 161.835938 169.234375 C 161.835938 167.78125 161.660156 166.371094 161.335938 165.019531 L 168.773438 160.042969 C 170.847656 161.628906 173.792969 161.804688 176.082031 160.273438 C 178.957031 158.347656 179.722656 154.46875 177.792969 151.605469 Z M 54.875 161.164062 L 48.25 156.734375 C 48.9375 154.214844 47.988281 151.4375 45.695312 149.902344 C 42.824219 147.980469 38.929688 148.742188 37 151.605469 C 35.066406 154.46875 35.832031 158.347656 38.707031 160.273438 C 41 161.804688 43.941406 161.628906 46.015625 160.042969 L 53.457031 165.019531 C 53.128906 166.371094 52.957031 167.78125 52.957031 169.234375 C 52.957031 175.53125 56.210938 181.074219 61.128906 184.28125 C 60.617188 181.515625 60.347656 178.660156 60.347656 175.746094 C 60.347656 166.960938 62.789062 158.730469 67.027344 151.695312 C 61.703125 152.890625 57.265625 156.425781 54.875 161.164062 " fill-opacity="1" fill-rule="nonzero"/></g><path fill="#4285f4" d="M 135.710938 168.378906 C 130.597656 161.171875 119.597656 161.171875 114.484375 168.378906 C 113.695312 169.492188 114.113281 171.042969 115.359375 171.605469 C 115.375 171.613281 115.386719 171.617188 115.402344 171.621094 C 116.335938 172.042969 117.453125 171.761719 118.046875 170.925781 C 121.445312 166.144531 128.75 166.144531 132.148438 170.925781 C 132.742188 171.761719 133.859375 172.042969 134.792969 171.621094 C 134.808594 171.617188 134.824219 171.613281 134.835938 171.605469 C 136.082031 171.042969 136.5 169.492188 135.710938 168.378906 " fill-opacity="1" fill-rule="nonzero"/><path fill="#4285f4" d="M 100.304688 168.378906 C 95.191406 161.171875 84.191406 161.171875 79.078125 168.378906 C 78.289062 169.492188 78.710938 171.042969 79.957031 171.605469 C 79.96875 171.613281 79.980469 171.617188 79.996094 171.621094 C 80.933594 172.042969 82.046875 171.761719 82.644531 170.925781 C 86.042969 166.144531 93.34375 166.144531 96.742188 170.925781 C 97.335938 171.761719 98.453125 172.042969 99.390625 171.621094 C 99.402344 171.617188 99.417969 171.613281 99.429688 171.605469 C 100.675781 171.042969 101.09375 169.492188 100.304688 168.378906 " fill-opacity="1" fill-rule="nonzero"/><g clip-path="url(#fba221c0c5)"><path fill="#ffffff" d="M 129.050781 188.125 C 121.957031 190.058594 114.683594 191.097656 107.394531 191.234375 C 100.105469 191.097656 92.832031 190.058594 85.742188 188.125 C 76.339844 185.5625 69.644531 177.238281 69.324219 167.535156 C 69.320312 167.488281 69.320312 167.441406 69.320312 167.394531 C 69.320312 167.347656 69.320312 167.304688 69.324219 167.253906 C 69.644531 157.550781 76.339844 149.226562 85.742188 146.664062 C 92.832031 144.730469 100.105469 143.695312 107.394531 143.554688 C 114.683594 143.695312 121.957031 144.730469 129.050781 146.664062 C 138.449219 149.226562 145.144531 157.550781 145.46875 167.253906 C 145.46875 167.304688 145.472656 167.347656 145.472656 167.394531 C 145.472656 167.441406 145.46875 167.488281 145.46875 167.535156 C 145.144531 177.238281 138.449219 185.5625 129.050781 188.125 Z M 107.394531 211.6875 C 99.949219 211.6875 93.804688 206.148438 92.878906 198.976562 C 92.878906 198.976562 99.304688 202.296875 107.394531 202.296875 C 115.484375 202.296875 121.910156 198.976562 121.910156 198.976562 C 120.988281 206.148438 114.84375 211.6875 107.394531 211.6875 Z M 107.394531 131.140625 C 82.667969 131.140625 62.625 151.109375 62.625 175.746094 C 62.625 193.285156 72.785156 208.457031 87.5625 215.746094 L 82.871094 243.542969 L 104.054688 220.230469 C 105.15625 220.3125 106.269531 220.355469 107.394531 220.355469 C 132.121094 220.355469 152.164062 200.382812 152.164062 175.746094 C 152.164062 151.109375 132.121094 131.140625 107.394531 131.140625 " fill-opacity="1" fill-rule="nonzero"/></g></svg>